<svg width="44" height="45" viewBox="0 0 44 45" fill="none" xmlns="http://www.w3.org/2000/svg">
<g clip-path="url(#clip0_20162_89)">
<path d="M43.7453 43.7819C43.5105 44.0136 43.1634 44.0909 42.8529 43.9797L7.15858 31.2527C5.91851 32.011 4.3456 32.1885 2.90297 31.5912C0.508321 30.5992 -0.633013 27.844 0.358876 25.4492C2.698 19.8024 6.07526 14.7478 10.3971 10.4259C14.719 6.10406 19.7735 2.72673 25.4204 0.387684C26.0068 0.144825 26.6146 0.0298424 27.2131 0.0298424C29.0586 0.0299263 30.8133 1.12348 31.5623 2.93186C32.0662 4.14856 32.0186 5.45807 31.5366 6.58248L43.9546 42.8922C44.0614 43.2043 43.9801 43.5501 43.7453 43.7819ZM12.5632 31.355L16.3461 32.7037C16.7903 32.2306 17.0067 31.5792 16.92 30.9204C16.8435 30.3403 16.5459 29.8246 16.0817 29.4684C15.6176 29.1122 15.0428 28.9582 14.4623 29.0345C13.8823 29.1109 13.3667 29.4085 13.0105 29.8727C12.6823 30.3004 12.5261 30.8222 12.5632 31.355ZM29.9743 3.58971C29.3451 2.07051 27.597 1.34649 26.0781 1.97589C15.0747 6.53358 6.50477 15.1036 1.94691 26.107C1.64209 26.8429 1.64209 27.6534 1.94691 28.3893C2.25173 29.1252 2.82485 29.6983 3.56073 30.0032C4.29661 30.308 5.10717 30.308 5.84305 30.0032C6.57893 29.6983 7.15205 29.1252 7.45687 28.3893C9.40773 23.6794 12.2248 19.4635 15.8297 15.8586C19.4346 12.2537 23.6505 9.43671 28.3604 7.48576C29.8796 6.85662 30.6037 5.10874 29.9743 3.58971ZM37.6093 29.65C37.5315 29.6519 37.4536 29.6564 37.376 29.6665C36.796 29.7429 36.2803 30.0406 35.9242 30.5048C35.568 30.9689 35.4139 31.5441 35.4902 32.1241C35.6479 33.3215 36.7501 34.1673 37.948 34.0099C38.3175 33.9613 38.6644 33.8179 38.9603 33.5999L37.6093 29.65ZM39.5315 35.2709C39.1128 35.4988 38.6528 35.6507 38.1722 35.7139C36.0349 35.9961 34.0675 34.4856 33.7862 32.3484C33.6499 31.3132 33.9249 30.2868 34.5606 29.4584C35.1729 28.6605 36.0494 28.1392 37.0382 27.9802L35.3301 22.9856L33.3658 24.4929C32.9893 24.7817 32.4497 24.7109 32.1608 24.3343C31.8719 23.9577 31.943 23.4183 32.3195 23.1294L34.7433 21.2695L30.3009 8.27966C29.9283 8.60364 29.4992 8.87468 29.0185 9.0738C19.9109 12.8464 12.8176 19.9396 9.04525 29.0471C8.91411 29.3639 8.75117 29.6579 8.56323 29.9288L10.8645 30.7493C10.9449 30.056 11.211 29.3946 11.647 28.8265C12.2826 27.9981 13.2029 27.4668 14.2381 27.3306C14.4115 27.3077 14.5844 27.2964 14.7565 27.2964C15.6114 27.2964 16.4384 27.5757 17.1281 28.1048C17.9566 28.7406 18.4878 29.6607 18.6242 30.6961C18.7465 31.6255 18.5296 32.546 18.0425 33.3086L28.7252 37.1176L29.13 36.1401C29.2672 35.8092 29.5871 35.6094 29.9243 35.6094C30.0339 35.6094 30.1453 35.6305 30.2529 35.675C30.6913 35.8566 30.8995 36.3594 30.718 36.7979L30.3462 37.6955L41.7517 41.7622L39.5315 35.2709Z" fill="black"/>
<path d="M9.28123 20.9748C9.27865 20.9789 9.27152 20.9898 9.26877 20.9938C9.00563 21.3885 8.47307 21.4944 8.07819 21.2315C7.684 20.9691 7.57709 20.4364 7.838 20.0415C8.00257 19.7887 8.27791 19.6507 8.55918 19.6507C8.71834 19.6507 8.8793 19.6949 9.02299 19.7873C9.42225 20.044 9.53784 20.5757 9.28123 20.9748Z" fill="black"/>
<path d="M7.97429 23.1098C7.13683 24.5781 6.38402 26.1148 5.73683 27.6771C5.55524 28.1157 5.05225 28.3237 4.61406 28.1421C4.17552 27.9605 3.96738 27.4578 4.14905 27.0193C4.82366 25.3907 5.60844 23.7889 6.48139 22.2583C6.63995 21.9804 6.93007 21.8245 7.22862 21.8245C7.37299 21.8245 7.51934 21.861 7.65358 21.9375C8.06582 22.1727 8.2095 22.6976 7.97429 23.1098Z" fill="black"/>
<path d="M26.8926 33.031C26.7223 33.0535 26.5493 33.0648 26.3784 33.0648C24.4262 33.0648 22.7616 31.6035 22.5065 29.6656C22.2252 27.5285 23.7348 25.5609 25.8719 25.2795C26.0422 25.257 26.2152 25.2456 26.3861 25.2456C28.3382 25.2456 30.0028 26.707 30.258 28.6451C30.5393 30.7821 29.0296 32.7496 26.8926 33.031ZM28.554 28.8694C28.411 27.7834 27.479 26.9645 26.3861 26.9645C26.29 26.9645 26.1925 26.9708 26.0963 26.9835C24.8988 27.1412 24.053 28.2437 24.2106 29.4413C24.3536 30.5272 25.2855 31.346 26.3784 31.346C26.4745 31.346 26.572 31.3396 26.6682 31.3269C27.8657 31.1691 28.7116 30.0667 28.554 28.8694Z" fill="black"/>
<path d="M26.669 22.3414C26.4986 22.364 26.3257 22.3753 26.1548 22.3753C24.2026 22.3753 22.538 20.9139 22.2829 18.976C22.1465 17.9407 22.4215 16.9144 23.0572 16.0859C23.6928 15.2574 24.613 14.7262 25.6483 14.5898C25.8186 14.5674 25.9915 14.5561 26.1622 14.5561C28.1145 14.5561 29.7792 16.0175 30.0343 17.9555C30.3157 20.0925 28.806 22.0599 26.669 22.3414ZM28.3304 18.1798C28.1874 17.0938 27.2553 16.2749 26.1624 16.2749C26.0664 16.2749 25.9689 16.2813 25.8728 16.2939C25.2927 16.3704 24.7771 16.6681 24.4209 17.1323C24.0647 17.5964 23.9106 18.1715 23.987 18.7517C24.13 19.8376 25.062 20.6565 26.1548 20.6565C26.2509 20.6565 26.3484 20.6501 26.4446 20.6374C27.642 20.4797 28.4879 19.3772 28.3304 18.1798Z" fill="black"/>
<path d="M21.001 25.9017L18.3596 26.2495C17.8893 26.3119 17.4574 25.9802 17.3954 25.5097C17.3334 25.0391 17.6647 24.6075 18.1352 24.5455L20.7765 24.1977C20.8146 24.1926 20.8524 24.1902 20.8898 24.1902C21.3144 24.1902 21.6838 24.505 21.7407 24.9375C21.8028 25.408 21.4716 25.8397 21.001 25.9017Z" fill="black"/>
<path d="M19.6616 19.5597L19.4283 21.3321C19.3664 21.8027 18.9348 22.1341 18.4642 22.0719C17.9936 22.01 17.6624 21.5784 17.7244 21.1078L17.9577 19.3354C18.0146 18.9029 18.3839 18.5881 18.8086 18.5881C18.8459 18.5881 18.8838 18.5905 18.9217 18.5956C19.3923 18.6576 19.7235 19.0891 19.6616 19.5597Z" fill="black"/>
</g>
<defs>
<clipPath id="clip0_20162_89">
<rect width="44" height="44" fill="white" transform="matrix(1 0 0 -1 0 44.0298)"/>
</clipPath>
</defs>
</svg>
